# xmcd CD database file
#
# Track frame offsets:
#	150
#	14915
#	32176
#	53042
#	72489
#	94403
#	116315
#	132794
#	163277
#	193788
#
# Disc length: 2920 seconds
#
# Revision: 0
# Processed by: cddbd v1.5.2PL0 Copyright (c) Steve Scherf et al.
# Submitted via: CDex 1.78
#
DISCID=930b660a
DTITLE=Erich McMann - The Last American Songbook
DYEAR=2012
DGENRE=Country
TTITLE0=The Red White and Blue
TTITLE1=Redneck Hippie
TTITLE2=My Heart Pounds (When I See You)
TTITLE3=Keep Me Loving you
TTITLE4=Back On The Farm
TTITLE5=The Ghost Of Senior Carmello
TTITLE6=I Don't Need No Woman (To Tell Me How To Drive)
TTITLE7=The Branson, Mo Summertime Blues
TTITLE8=The Time Has Come
TTITLE9=The Last Song
EXTD=YEAR: 2012
EXTT0=
EXTT1=
EXTT2=
EXTT3=
EXTT4=
EXTT5=
EXTT6=
EXTT7=
EXTT8=
EXTT9=
PLAYORDER=
